# xmcd
#
# Track frame offsets:
# 150
# 14182
# 27160
# 39317
# 50900
# 64713
# 81663
# 94917
# 107380
# 122249
# 138993
# 148114
#
# Disc length: 2173 seconds
#
#
# Revision: 0
# Processed by: cddbd v1.5.2PL0 Copyright (c) Steve Scherf et al.
# Submitted via: FreeRIP 2.945 
#
DISCID=af087b0c
DTITLE=Poeta e Trovador - Charanga 29
DYEAR=1980
DGENRE=Sertanejo
TTITLE0=Chi Sô
TTITLE1=Amor de Mentira
TTITLE2=Amigo do Dinheiro
TTITLE3=Derrota de Amigo
TTITLE4=Meu Recado
TTITLE5=Meu Pranto
TTITLE6=História Boba
TTITLE7=Charanga 29
TTITLE8=A Volta do Boêmio
TTITLE9=Silêncio da Noite
TTITLE10=Comercio do Amor
TTITLE11=Lágrimas
EXTD=
EXTT0=Trovador e Duduca
EXTT1=Jacira Amaral e Jonas Jr
EXTT2=Jacira Amaral e Safuan
EXTT3=Trovador e Zancapê
EXTT4=Moniz e Trovador
EXTT5=Jacira Amaral e Cancioneiro
EXTT6=Dona Dô e Noel Fernandes
EXTT7=Jacira Amaral e José Raimundo
EXTT8=Jacira Amaral e Tião Carreiro
EXTT9=Trovador e Siqueirinha
EXTT10=Jacira Amaral e Chriz
EXTT11=Trovador e Pioneiro
PLAYORDER=
